<svg xmlns="http://www.w3.org/2000/svg" width="588" height="424" viewBox="0 0 588 424" version="1.1">
	<path d="M 363.826 41.861 C 359.001 51.891, 351.685 60.023, 344.798 63.010 C 340.540 64.857, 336.724 65.462, 325.355 66.091 C 298.187 67.595, 285.903 71.423, 267.016 84.274 C 259.708 89.246, 259.307 89.384, 250.016 90.134 C 244.782 90.557, 238.492 90.925, 236.038 90.951 L 231.576 91 235.038 88.073 C 242.633 81.652, 261.770 73.300, 278.733 69.004 C 281.173 68.386, 283.425 67.074, 284.050 65.906 C 285.336 63.504, 295 39.232, 295 38.405 C 295 38.091, 290.857 41.700, 285.792 46.425 C 275.571 55.964, 263.841 62.583, 252 65.496 C 236.579 69.291, 223.463 74.819, 211 82.779 C 202.776 88.032, 189.155 99.967, 183.500 106.877 C 180.750 110.237, 178.214 112.989, 177.864 112.993 C 176.755 113.005, 175.825 103.993, 176.514 99.917 C 176.878 97.762, 176.930 96, 176.630 96 C 176.330 96, 174.829 98.138, 173.295 100.750 C 170.787 105.021, 170.471 106.610, 170.153 116.512 L 169.799 127.524 162.851 133.012 C 159.030 136.030, 153.144 140.188, 149.770 142.250 C 143.953 145.807, 143.196 146.001, 135.069 146.022 L 126.500 146.043 125 149.272 C 122.871 153.854, 118.707 154.268, 116.557 150.111 C 113.477 144.155, 115.139 137.585, 120.964 132.684 C 122.634 131.279, 124 129.936, 124 129.701 C 124 129.466, 121.660 129.698, 118.800 130.218 C 106.897 132.382, 98.400 140.018, 96.474 150.285 C 96.091 152.328, 95.456 154, 95.063 154 C 94.011 154, 90.498 149.982, 88.215 146.167 C 85.652 141.883, 84.812 143.200, 84.233 152.415 C 83.696 160.937, 86 168.477, 91.462 176.081 L 95.042 181.062 95.271 193.356 C 95.485 204.827, 95.701 206.038, 98.500 211.466 C 100.150 214.665, 102.472 217.922, 103.659 218.703 C 105.790 220.105, 105.805 220.071, 104.828 216.221 C 103.391 210.557, 105.265 204.757, 110.313 199.252 C 114.986 194.155, 121.642 189, 123.550 189 C 124.237 189, 125.614 191.267, 126.611 194.038 C 128.823 200.191, 131.298 203, 134.504 203 C 138.283 203, 139.356 199.827, 138.609 190.861 C 137.961 183.089, 137.965 183.069, 140.730 181.661 C 143.497 180.252, 153.972 177, 155.746 177 C 156.261 177, 157.230 178.826, 157.899 181.057 C 159.212 185.440, 162.139 189, 164.429 189 C 167.297 189, 168.886 185.927, 169.561 179.077 L 170.241 172.179 180.370 168.580 C 185.942 166.601, 191.008 164.986, 191.629 164.991 C 192.249 164.996, 193.339 166.404, 194.050 168.121 C 196.643 174.381, 201.217 176.640, 204.551 173.306 C 205.910 171.947, 206.127 170.487, 205.648 165.907 C 205.233 161.936, 205.431 159.887, 206.299 159.167 C 208.191 157.597, 232.064 148.731, 232.697 149.364 C 232.900 149.566, 231.403 151.705, 229.371 154.116 C 227.339 156.527, 222.614 164.912, 218.870 172.750 L 212.064 187 207.010 187 C 203.519 187, 199.887 187.938, 195.263 190.035 C 189.597 192.604, 186.568 195.109, 175.535 206.355 C 160.527 221.650, 155.217 225.006, 146.054 224.990 C 138.449 224.977, 131.064 221.452, 127.060 215.924 C 123.782 211.399, 123.310 211.692, 125.166 217.101 C 127.795 224.764, 136.780 231.886, 144 232.030 L 146.500 232.080 143.908 233.489 C 142.483 234.264, 138.255 236.051, 134.512 237.459 C 120.034 242.909, 110.992 249.889, 99.300 264.643 C 95.634 269.269, 90.580 274.446, 88.067 276.147 C 83.958 278.931, 83.801 279.171, 86.500 278.543 C 92.848 277.067, 96.836 274.247, 106.500 264.396 C 112 258.791, 118.710 252.554, 121.412 250.537 C 126.728 246.568, 135.927 241.594, 136.638 242.305 C 136.879 242.546, 135.719 244.939, 134.058 247.622 C 132.398 250.305, 130.200 255.875, 129.173 260 C 125.375 275.254, 121.116 279.940, 110.089 280.999 C 103.579 281.623, 103.536 281.647, 106.500 282.973 C 108.150 283.711, 111.977 284.349, 115.004 284.391 C 124.827 284.526, 130.314 279.391, 133.484 267.096 C 136.870 253.960, 141.713 247.157, 154.888 237.027 C 165.128 229.154, 170.427 223.865, 179.534 212.426 C 188.562 201.085, 191.761 197.995, 198.500 194.101 C 203.684 191.106, 209.996 189.224, 210.006 190.671 C 210.009 191.127, 207.680 196.335, 204.829 202.245 C 200.099 212.055, 199.503 212.860, 197.995 211.495 C 197.086 210.673, 195.365 210, 194.171 210 C 192.381 210, 192.006 210.570, 192.035 213.250 C 192.055 215.037, 192.686 217.612, 193.439 218.970 C 194.673 221.200, 194.512 222.029, 191.786 227.470 C 187.407 236.215, 187.123 236.464, 184.436 233.940 C 183.183 232.763, 180.683 231.744, 178.836 231.657 C 174.138 231.436, 173.761 234.875, 177.917 240.046 C 179.613 242.156, 181 244.308, 181 244.828 C 181 245.348, 179.366 248.290, 177.370 251.366 L 173.740 256.959 170.793 254.479 C 169.067 253.027, 166.584 252, 164.798 252 C 161.939 252, 161.788 252.188, 162.355 255.023 C 162.687 256.686, 164.093 259.715, 165.480 261.755 C 166.866 263.795, 168 266.004, 168 266.664 C 168 268.377, 162.720 271.906, 159.063 272.637 C 154.037 273.643, 154.585 274.772, 160.716 276.045 C 168.570 277.675, 177.185 276.794, 185.355 273.523 L 192.210 270.779 197.649 273.442 C 203.596 276.353, 211.230 277.666, 215.666 276.539 L 218.500 275.820 214.830 273.927 C 210.385 271.634, 207.227 267.405, 205.380 261.269 C 203.243 254.168, 203.501 253.644, 207.750 256.437 C 211.241 258.732, 220.735 261.599, 221.688 260.645 C 221.921 260.413, 220.951 258.972, 219.534 257.442 C 215.779 253.391, 213.654 245.079, 214.249 236.769 C 214.658 231.045, 215.242 229.267, 217.719 226.194 C 224.609 217.647, 240.102 213, 261.713 213 C 275.763 213, 290.667 210.888, 289.536 209.058 C 289.271 208.630, 286.977 207.995, 284.437 207.646 C 277.944 206.757, 271.141 203.526, 266.750 199.248 C 264.688 197.238, 263 195.270, 263 194.875 C 263 193.588, 269.298 192.061, 279.019 190.990 C 290.574 189.717, 300.109 190.851, 309.513 194.616 C 313.128 196.063, 316.323 197.010, 316.613 196.720 C 316.903 196.431, 316.231 194.412, 315.120 192.234 C 312.467 187.035, 304.588 180.050, 294.254 173.735 C 283.748 167.315, 283.565 165.671, 293 162.470 C 302.347 159.298, 314.643 152.736, 320.942 147.557 C 325.517 143.797, 334.352 133.978, 333.698 133.382 C 333.589 133.283, 330.350 133.820, 326.500 134.576 C 318.154 136.214, 312.719 135.648, 304.050 132.239 C 296.706 129.351, 286.957 123.858, 285.009 121.510 C 281.034 116.722, 303.461 105.211, 317.299 104.937 C 323.317 104.817, 316.759 103.149, 303.725 101.484 C 283.189 98.859, 284.499 99.220, 286.653 96.784 C 287.669 95.635, 291.815 92.517, 295.867 89.855 C 305.842 83.301, 316.410 80.289, 337.500 77.989 C 357.101 75.851, 361.250 73.404, 365.708 61.356 C 368.343 54.232, 370.189 35.836, 368.377 34.749 C 367.895 34.459, 365.847 37.660, 363.826 41.861 M 397.250 64.662 C 396.363 65.020, 396 68.179, 396 75.548 C 396 87.769, 396.191 88, 406.318 88 C 412.130 88, 412.824 88.218, 413.345 90.211 L 413.923 92.421 416.276 90.211 C 418.174 88.427, 419.811 88, 424.743 88 C 433.326 88, 434 87.100, 434 75.629 C 434 69.784, 433.560 65.960, 432.800 65.200 C 431.957 64.357, 426.683 64.023, 415.050 64.079 C 405.947 64.122, 397.938 64.385, 397.250 64.662 M 326.200 90.200 C 324.523 91.877, 324.702 96.508, 326.502 98.002 C 327.392 98.740, 329.223 99.005, 330.989 98.652 C 336.554 97.539, 357.958 108.037, 373.379 119.444 C 382.375 126.098, 396.060 140.453, 402.297 149.779 C 417.602 172.661, 425.154 195.509, 426.665 223.500 C 427.561 240.099, 424.245 264.743, 420.343 270.473 C 419.604 271.557, 418.993 273.582, 418.985 274.973 C 418.964 278.352, 403.880 297.897, 386.388 317.209 C 382.050 321.998, 373.494 331.448, 367.375 338.209 C 341.460 366.841, 297.757 405, 290.880 405 C 288.756 405, 287.655 405.663, 286.852 407.426 C 285.390 410.633, 286.498 414.706, 289.051 415.516 C 291.603 416.326, 296 413.598, 296 411.205 C 296 410.216, 299.098 407.079, 303.138 403.979 C 318.995 391.808, 327.062 384.753, 346.204 366.312 L 356.909 356 368.877 356 C 380.843 356, 380.847 356.001, 383.846 359 C 385.496 360.650, 387.532 362, 388.371 362 C 389.505 362, 389.973 363.344, 390.198 367.250 L 390.500 372.500 401.664 373 C 412.385 373.480, 412.913 373.609, 414.986 376.250 C 417.999 380.088, 423.954 380.145, 426.927 376.365 C 430.453 371.883, 429.548 366.852, 424.771 364.382 C 421.113 362.490, 417.822 363.200, 414.713 366.553 C 412.493 368.947, 411.888 369.068, 403.434 368.792 L 394.500 368.500 394.185 364.674 C 393.998 362.397, 394.504 359.880, 395.435 358.459 C 397.694 355.011, 397.362 351.271, 394.545 348.455 C 391.055 344.964, 386.573 345.176, 383 349 C 380.261 351.932, 379.979 352, 370.560 352 L 360.922 352 377.711 333.727 C 395.780 314.060, 412.731 294.120, 419.304 284.799 C 421.553 281.610, 424.115 279, 424.997 279 C 428.460 279, 430.418 273.818, 427.905 271.305 C 427.112 270.512, 427.423 266.718, 429.033 257.536 C 430.996 246.343, 431.191 242.621, 430.702 225.681 C 430.290 211.395, 429.620 204.216, 428.075 197.551 C 426.934 192.629, 426 188.466, 426 188.301 C 426 188.135, 431.981 188, 439.292 188 L 452.583 188 455.281 193.500 L 457.978 199 484.867 199 C 507.548 199, 511.950 199.235, 513 200.500 C 514.766 202.628, 518.367 202.357, 520.562 199.932 C 522.270 198.044, 522.303 197.629, 520.935 195.182 C 519.192 192.061, 514.964 191.133, 513.042 193.449 C 511.956 194.757, 508.566 195, 491.378 195 C 480.170 195, 471 194.730, 471 194.400 C 471 192.762, 479.460 181, 480.639 181 C 481.388 181, 482 181.450, 482 182 C 482 184.087, 486.104 187, 489.045 187 C 494.838 187, 498.803 180.237, 496.038 175.071 C 493.585 170.487, 485.627 170.422, 482.791 174.963 C 482.091 176.083, 480.556 177, 479.378 177 C 476.990 177, 474.071 180.482, 469.108 189.250 C 464.705 197.029, 462.338 197.082, 458 189.500 L 454.853 184 439.891 184 L 424.929 184 422.960 179.407 C 421.877 176.881, 420.720 173.731, 420.387 172.407 L 419.783 170 431.711 170 C 443.154 170, 443.727 170.101, 445.790 172.474 C 448.868 176.014, 452.585 176.701, 455.774 174.319 C 461.252 170.229, 460.520 163.289, 454.364 160.948 C 451.514 159.865, 445.568 162.076, 444.609 164.577 C 444.174 165.710, 441.356 165.997, 430.781 165.983 L 417.500 165.966 413.731 158.983 L 409.963 152 440.455 152 L 470.947 152 474.308 147.009 L 477.669 142.019 480.009 144.509 C 482.811 147.493, 487.778 147.831, 490.886 145.250 C 496.229 140.814, 493.318 132, 486.509 132 C 481.773 132, 480.136 132.836, 478.437 136.121 C 477.619 137.705, 476.315 139, 475.540 139 C 474.766 139, 472.848 140.913, 471.278 143.250 L 468.424 147.500 437.938 147.764 L 407.451 148.028 399.181 138.039 C 389.759 126.659, 381.269 118.831, 370.774 111.846 L 363.500 107.005 377.693 107.003 C 390.641 107, 392.007 107.171, 393.255 108.953 C 395.389 112, 399.825 113.315, 403.222 111.908 C 408.506 109.719, 409.655 103.564, 405.545 99.455 C 402.070 95.979, 397.737 96.190, 394.342 100 L 391.669 103 373.982 103 L 356.295 103 345.897 98.074 C 340.179 95.365, 334.717 92.215, 333.760 91.074 C 331.835 88.780, 328.057 88.343, 326.200 90.200 M 397.750 101.080 C 395.741 102.250, 395.432 106.032, 397.200 107.800 C 399.035 109.635, 402.807 109.229, 403.961 107.072 C 405.211 104.737, 404.402 102.285, 401.948 100.972 C 399.777 99.810, 399.938 99.806, 397.750 101.080 M 418.223 102.557 C 416.096 104.046, 416 104.752, 416 118.934 C 416 131.111, 416.277 133.985, 417.552 135.043 C 418.519 135.845, 422.200 136.364, 427.302 136.416 C 435.478 136.500, 435.501 136.507, 435.816 139.250 C 436.113 141.830, 436.434 142, 441 142 C 445.566 142, 445.887 141.830, 446.184 139.250 C 446.498 136.516, 446.549 136.498, 455 136.222 C 461.528 136.008, 463.790 135.558, 464.750 134.281 C 465.614 133.132, 466 128.214, 466 118.366 C 466 104.771, 465.897 104.042, 463.777 102.557 C 461.941 101.270, 457.985 101, 441 101 C 424.015 101, 420.059 101.270, 418.223 102.557 M 229 104.539 C 215.337 107.017, 202.433 113.048, 194.174 120.816 C 192.345 122.537, 191.115 124.377, 191.441 124.905 C 191.768 125.433, 194.390 126.350, 197.267 126.943 C 205.980 128.738, 213.449 125.405, 218.452 117.489 C 221.575 112.549, 224.595 110.608, 236.500 105.891 C 242.763 103.409, 243.132 103.120, 240 103.148 C 238.075 103.165, 233.125 103.791, 229 104.539 M 320.438 108.025 C 310.770 110.486, 301.891 114.212, 300.594 116.353 C 299.678 117.865, 300.142 118.719, 303.452 121.610 C 311.035 128.232, 325.894 130.389, 335.250 126.226 L 340 124.112 339.999 127.806 C 339.998 132.382, 335.379 142.355, 330.878 147.500 C 327.080 151.840, 312.484 163, 310.605 163 C 309.932 163, 308.581 163.586, 307.602 164.302 C 305.968 165.497, 306.172 165.847, 310.087 168.552 C 312.434 170.173, 317.110 174.727, 320.479 178.671 C 338.670 199.966, 342.695 229.516, 330.441 251.809 C 320.752 269.436, 309.162 280.739, 278.500 302.464 C 257.923 317.043, 249.677 326.321, 243.329 342.036 C 238.377 354.298, 237.842 370.802, 241.965 384.150 C 244.055 390.916, 253.516 407.662, 256.210 409.361 C 258.248 410.646, 266.271 407.378, 277.799 400.566 C 302.546 385.942, 337.900 354.523, 374.665 314.482 C 384.188 304.110, 396 289.375, 396 287.868 C 396 287.391, 392.288 287.002, 387.750 287.004 L 379.500 287.008 372.369 293.254 C 361.769 302.539, 359 306.092, 359 310.414 C 359 314.513, 356.790 320.469, 354.212 323.320 C 351.399 326.431, 345.357 329, 340.856 329 C 331.523 329, 323.663 322.114, 322.389 312.822 C 321.881 309.112, 322.253 307.127, 324.294 302.669 C 326.886 297.007, 330.423 294.264, 337.241 292.625 C 341.431 291.618, 348.450 293.837, 352.769 297.534 L 356.655 300.861 367.078 291.447 L 377.500 282.034 389.318 282.017 L 401.137 282 405.543 272.570 C 413.160 256.270, 414.499 249.518, 414.479 227.500 C 414.464 211.142, 414.147 207.249, 412.204 199.500 C 407.013 178.799, 395.431 156.947, 382.789 144 C 370.730 131.651, 354.147 119.121, 341.524 112.822 C 327.658 105.903, 328.247 106.037, 320.438 108.025 M 481.820 137.496 C 480.880 139.558, 480.998 140.340, 482.496 141.996 C 485.603 145.429, 490 143.966, 490 139.500 C 490 134.695, 483.789 133.174, 481.820 137.496 M 377.580 152.912 C 374.818 155.964, 375.874 160.188, 379.903 162.199 C 383.279 163.884, 387.729 170.772, 396.173 187.383 L 399.163 193.266 394.581 197.917 L 390 202.569 390 209.824 C 390 216.989, 390.050 217.128, 394 220.885 C 397.488 224.203, 398 225.255, 398 229.105 C 398 233.870, 395.058 238.212, 390.944 239.518 C 384.291 241.629, 377 236.009, 377 228.768 C 377 225.311, 377.609 224.111, 381 220.885 C 387.183 215.003, 386.047 211.845, 379.241 215.995 C 367.517 223.143, 370.457 240.060, 384.135 244.159 C 398.932 248.592, 409.340 228.673, 397.909 217.799 C 394.539 214.593, 394 213.484, 394 209.752 C 394 205.883, 394.529 204.904, 399 200.500 C 401.750 197.791, 404 194.985, 404 194.263 C 404 192.667, 398.519 181.672, 391.656 169.500 C 388.197 163.365, 386.674 159.599, 386.874 157.671 C 387.454 152.071, 381.227 148.882, 377.580 152.912 M 449.170 164.853 C 448.417 165.342, 447.983 166.972, 448.170 168.609 C 448.449 171.054, 448.946 171.500, 451.391 171.500 C 454.956 171.500, 457.001 168.816, 455.393 166.250 C 454.141 164.254, 451.132 163.578, 449.170 164.853 M 486.200 176.200 C 484.341 178.059, 484.782 181.813, 487 183 C 490.845 185.058, 495.030 180.794, 492.961 176.928 C 491.807 174.771, 488.035 174.365, 486.200 176.200 M 319.648 191.151 C 320.082 195.808, 319.812 198.521, 318.637 201.330 L 317.035 205.161 314.206 203.147 C 311.649 201.326, 306 199.257, 306 200.142 C 306 200.339, 306.667 203.651, 307.483 207.500 C 308.298 211.350, 308.973 216.188, 308.983 218.250 C 308.992 220.313, 309.220 222, 309.488 222 C 309.756 222, 314.643 219.679, 320.346 216.842 L 330.717 211.685 329.822 207.701 C 328.615 202.332, 323.489 190.437, 321.040 187.324 L 319.057 184.803 319.648 191.151 M 443.635 206.073 L 441 208.145 441 232.438 C 441 264.103, 439.679 262, 459.573 262 C 479.566 262, 478.004 264.440, 477.985 233.250 C 477.976 219.637, 477.639 208.005, 477.235 207.400 C 475.446 204.721, 471.620 204, 459.201 204 C 447.633 204, 445.992 204.219, 443.635 206.073 M 445.447 209.278 C 445.177 209.981, 445.079 219.544, 445.228 230.528 L 445.500 250.500 459.500 250.500 L 473.500 250.500 473.771 230.072 C 473.979 214.398, 473.747 209.457, 472.771 208.837 C 470.542 207.423, 446.007 207.818, 445.447 209.278 M 318.398 224.395 C 307.637 229.721, 307.471 229.856, 305.227 235.145 C 303.976 238.090, 300.469 243.425, 297.433 247 L 291.912 253.500 295.706 254.192 C 297.793 254.573, 304.106 254.911, 309.736 254.942 L 319.972 255 322.456 251.246 C 326.443 245.221, 329.882 235.710, 330.774 228.240 C 331.615 221.197, 331.446 219, 330.065 219 C 329.642 219, 324.392 221.428, 318.398 224.395 M 457.389 254.430 C 456.393 257.025, 457.788 259.169, 460.246 258.820 C 461.898 258.585, 462.500 257.833, 462.500 256 C 462.500 254.167, 461.898 253.415, 460.246 253.180 C 458.893 252.988, 457.750 253.488, 457.389 254.430 M 277.387 264.243 C 273.474 266.635, 267.299 269.921, 263.664 271.546 C 260.028 273.171, 257.056 274.725, 257.059 275 C 257.067 275.666, 277.245 286.889, 280.949 288.287 C 283.660 289.310, 284.393 288.981, 291.679 283.466 C 300.352 276.902, 314 263.846, 314 262.113 C 314 261.386, 311.137 260.998, 305.750 260.993 C 301.212 260.989, 294.575 260.740, 291 260.440 C 284.681 259.910, 284.302 260.015, 277.387 264.243 M 243.393 281.637 C 241.255 283.088, 238.115 285.336, 236.415 286.632 L 233.324 288.990 234.617 297.745 C 236.592 311.113, 236.364 310.661, 241.744 311.835 C 251.861 314.043, 252.008 314.026, 256.393 310.109 C 261.638 305.423, 268.476 300.035, 273.208 296.861 L 276.916 294.373 271.208 291.036 C 254.034 280.997, 250.355 279.014, 248.890 279.007 C 248.004 279.003, 245.530 280.187, 243.393 281.637 M 224.881 296.340 C 219.742 300.578, 206 320.669, 206 323.943 C 206 325.919, 214.339 342, 215.363 342 C 215.933 342, 221.206 340.373, 227.081 338.383 C 237.226 334.948, 237.876 334.559, 240.026 330.633 C 241.270 328.360, 243.394 325.008, 244.745 323.184 C 246.096 321.361, 247.033 319.700, 246.827 319.494 C 246.621 319.287, 243.095 318.304, 238.992 317.309 L 231.533 315.500 229.779 305.096 C 228.814 299.373, 227.907 294.576, 227.762 294.435 C 227.618 294.294, 226.321 295.151, 224.881 296.340 M 427.259 297.659 C 421.441 299.719, 416.375 305.831, 415.059 312.378 C 413.207 321.594, 416.555 329.594, 424.257 334.355 C 438.743 343.312, 456.070 333.440, 455.965 316.290 C 455.925 309.759, 455.020 307.697, 449.763 302.149 C 444.200 296.278, 435.860 294.614, 427.259 297.659 M 334.355 297.992 C 330.375 299.598, 326.667 305.680, 326.667 310.601 C 326.667 320.737, 338.134 327.925, 346.929 323.302 C 354.171 319.496, 356.490 311.698, 352.609 304.206 C 349.482 298.168, 341.040 295.295, 334.355 297.992 M 427.098 304.718 C 426.219 305.388, 425.725 305.968, 426 306.006 C 426.275 306.045, 430.301 306.132, 434.946 306.200 C 440.570 306.282, 443.522 305.935, 443.779 305.162 C 444.224 303.828, 444.635 303.902, 435.598 303.674 C 431.451 303.570, 428.059 303.986, 427.098 304.718 M 337.216 307.061 C 338.823 307.998, 338.807 308.269, 336.970 311.281 C 335.891 313.051, 335.006 314.864, 335.004 315.309 C 334.996 316.932, 337.064 314.781, 338.841 311.318 L 340.664 307.765 342.873 311.509 C 345.790 316.453, 346.722 315.335, 344.049 310.097 C 342.246 306.563, 341.516 306.004, 338.730 306.030 C 336.092 306.055, 335.814 306.244, 337.216 307.061 M 422.975 311.565 C 421.706 314.905, 421.742 317.961, 423.098 321.851 C 424.105 324.740, 427 326.335, 427 324 C 427 323.450, 426.570 323, 426.045 323 C 424.741 323, 423.636 316.588, 424.409 313.507 C 424.755 312.128, 425.731 311, 426.578 311 C 427.425 311, 427.840 310.550, 427.500 310 C 426.357 308.150, 423.958 308.979, 422.975 311.565 M 430 311 C 427.979 313.021, 427.245 319.324, 428.765 321.600 C 430.171 323.706, 433.527 324.687, 437.783 324.237 C 441.084 323.887, 441.826 323.495, 441.020 322.525 C 440.273 321.624, 440.406 320.908, 441.488 320.010 C 443.225 318.569, 443.493 315.423, 441.959 314.475 C 441.387 314.121, 441.173 313.030, 441.484 312.051 C 441.939 310.618, 441.311 310.148, 438.275 309.646 C 432.712 308.727, 432.188 308.812, 430 311 M 444 309.941 C 444 310.459, 444.450 311.160, 445 311.500 C 446.399 312.365, 446.253 321.347, 444.817 322.783 C 444.166 323.434, 443.978 324.311, 444.398 324.732 C 444.819 325.153, 445.802 324.624, 446.582 323.557 C 448.310 321.193, 448.463 311.863, 446.800 310.200 C 445.364 308.764, 444 308.638, 444 309.941 M 431.357 313.577 C 427.840 318.946, 433.429 324.637, 438.082 320.425 C 440.549 318.193, 440.519 315.519, 438 313 C 435.314 310.314, 433.386 310.482, 431.357 313.577 M 433 316.500 C 433 317.325, 433.675 318, 434.500 318 C 435.325 318, 436 317.325, 436 316.500 C 436 315.675, 435.325 315, 434.500 315 C 433.675 315, 433 315.675, 433 316.500 M 427 328.035 C 427 329.813, 429.448 330.780, 431.742 329.908 C 433.111 329.387, 436.429 329.253, 439.115 329.610 C 442.913 330.113, 444 329.951, 443.999 328.879 C 443.999 327.816, 442.048 327.497, 435.499 327.485 C 430.825 327.477, 427 327.724, 427 328.035 M 200.358 340.250 C 197.536 351.263, 197.761 370.312, 200.819 379.190 C 203.074 385.738, 203.229 385.915, 208.066 387.522 C 210.785 388.425, 213.471 389.010, 214.035 388.822 C 214.600 388.633, 218.869 384.209, 223.523 378.990 L 231.985 369.500 232.008 362.500 C 232.021 358.650, 232.665 352.804, 233.441 349.508 C 234.216 346.213, 234.672 343.338, 234.454 343.120 C 234.236 342.902, 229.207 344.139, 223.279 345.868 C 217.350 347.597, 212.168 349.009, 211.761 349.006 C 211.355 349.003, 209.212 345.400, 207 341 C 204.788 336.600, 202.806 333, 202.597 333 C 202.387 333, 201.379 336.262, 200.358 340.250 M 386.750 350.080 C 384.741 351.250, 384.432 355.032, 386.200 356.800 C 387.914 358.514, 391.678 358.282, 392.393 356.418 C 393.516 353.493, 393.013 351.077, 391.066 350.035 C 388.764 348.803, 388.946 348.801, 386.750 350.080 M 416.947 369.640 C 414.973 374.833, 421.567 378.185, 424.540 373.500 C 426.553 370.329, 424.743 367, 421.007 367 C 418.624 367, 417.729 367.581, 416.947 369.640 M 223.963 386.990 C 215.622 395.959, 215.453 396.076, 212.231 395.109 C 210.433 394.570, 209.185 394.490, 209.458 394.932 C 210.956 397.356, 224.447 407.312, 229.089 409.420 C 234.949 412.081, 246.352 413.858, 247.337 412.264 C 247.665 411.733, 246.788 409.769, 245.388 407.899 C 241.377 402.544, 237.873 395.194, 235.040 386.195 L 232.425 377.890 223.963 386.990" stroke="none" fill="#ff1ab2" fill-rule="evenodd"/>
</svg>